<mxfile host="app.diagrams.net" modified="2023-06-22T08:13:57.156Z" agent="Mozilla/5.0 (Windows NT 10.0; Win64; x64) AppleWebKit/537.36 (KHTML, like Gecko) Chrome/114.0.0.0 Safari/537.36" version="21.5.0" etag="-14OMa6bFAEG5QPE3qjW" type="google">
  <diagram name="Страница 1" id="XD6laJgRfUInp5J-bZsB">
    <mxGraphModel>
      <root>
        <mxCell id="0" />
        <mxCell id="1" parent="0" />
      </root>
    </mxGraphModel>
  </diagram>
</mxfile>
